<svg viewBox="0 0 500 500" xmlns="http://www.w3.org/2000/svg">
  <path d="M 395.628 141.444 C 395.628 210.404 367.591 273.027 322.405 318.211 C 277.219 363.394 214.592 391.43 145.628 391.43 C 76.664 391.43 14.037 363.394 -31.149 318.211 C -76.335 273.027 -104.372 210.404 -104.372 141.444 C -104.372 72.484 -76.335 9.861 -31.149 -35.323 C 14.037 -80.506 76.664 -108.542 145.628 -108.542 C 214.592 -108.542 277.219 -80.506 322.405 -35.323 C 367.591 9.861 395.628 72.484 395.628 141.444 Z M 320.991 -33.909 C 276.056 -78.84 214.183 -106.542 145.628 -106.542 C 77.073 -106.542 15.2 -78.84 -29.734 -33.909 C -74.669 11.023 -102.372 72.893 -102.372 141.444 C -102.372 209.995 -74.669 271.865 -29.734 316.797 C 15.2 361.728 77.073 389.43 145.628 389.43 C 214.183 389.43 276.056 361.728 320.991 316.797 C 365.925 271.865 393.628 209.995 393.628 141.444 C 393.628 72.893 365.925 11.023 320.991 -33.909 Z" style="" transform="matrix(0.999895, 0.01451, -0.025005, 0.999742, 107.924027, 106.479439)"></path>
</svg>