<?xml version="1.0" standalone="no"?><!DOCTYPE svg PUBLIC "-//W3C//DTD SVG 1.1//EN" "http://www.w3.org/Graphics/SVG/1.1/DTD/svg11.dtd"><svg t="1661521958329" class="icon" viewBox="0 0 1024 1024" version="1.1" xmlns="http://www.w3.org/2000/svg" p-id="881" xmlns:xlink="http://www.w3.org/1999/xlink" width="200" height="200"><path d="M975.872 968.704c0 12.288-8.192 18.432-23.552 18.432H180.224c-23.552 0-44.032-5.12-60.416-14.336s-29.696-23.552-39.936-40.96c-10.24-17.408-17.408-37.888-21.504-61.44-4.096-23.552-6.144-49.152-6.144-76.8V180.224c0-54.272 14.336-93.184 43.008-117.76s69.632-36.864 123.904-36.864h205.824c35.84 0 72.704 0 110.592-1.024 37.888 0 74.752-1.024 110.592-1.024h209.92c19.456 0 36.864 4.096 52.224 12.288s26.624 19.456 36.864 33.792 17.408 31.744 22.528 51.2c5.12 19.456 8.192 40.96 8.192 63.488v428.032c-134.144 0-256 0-363.52-1.024H477.184c-45.056 0-84.992 0-120.832-1.024-35.84 0-64.512-1.024-88.064-1.024h-38.912c-14.336 0-29.696 4.096-43.008 13.312-14.336 9.216-26.624 20.48-37.888 35.84s-20.48 32.768-27.648 53.248-10.24 40.96-10.24 62.464c0 26.624 4.096 51.2 11.264 72.704 7.168 21.504 17.408 39.936 28.672 54.272s25.6 26.624 39.936 34.816 28.672 12.288 43.008 12.288h720.896c6.144 0 10.24 2.048 15.36 5.12s6.144 9.216 6.144 15.36zM520.192 24.576v408.576l80.896-113.664 79.872 113.664V24.576H520.192z" fill="#2c2c2c" p-id="882"></path><path d="M975.872 680.96H216.064c-8.192 0-16.384 2.048-25.6 6.144-9.216 4.096-17.408 11.264-24.576 19.456-8.192 9.216-14.336 19.456-18.432 31.744-5.12 12.288-7.168 25.6-7.168 40.96s2.048 29.696 6.144 43.008c4.096 13.312 9.216 24.576 16.384 34.816 6.144 10.24 14.336 18.432 24.576 24.576 9.216 6.144 19.456 9.216 30.72 9.216h758.784c-9.216-9.216-16.384-18.432-23.552-29.696-6.144-9.216-11.264-20.48-16.384-33.792-5.12-13.312-7.168-28.672-7.168-45.056 0-19.456 2.048-34.816 7.168-47.104 5.12-12.288 10.24-22.528 16.384-30.72 5.12-9.216 13.312-16.384 22.528-23.552z" fill="#2c2c2c" p-id="883"></path></svg>