<svg viewBox="0 0 200 200" xmlns="http://www.w3.org/2000/svg">
  <path d="M 272.918 22.167 Q 280.709 11.24 293.457 2.639 Q 292.243 3.044 289.511 3.854 Q 284.452 5.371 282.125 6.181 Q 279.798 6.99 275.498 8.66 Q 271.198 10.329 268.719 11.897 Q 266.24 13.466 263.306 15.843 Q 260.372 18.221 258.45 20.953 Q 252.278 29.654 252.177 35.927 Q 252.177 37.242 252.48 38.254 Q 253.492 42.402 258.551 44.224 Q 259.866 41.998 262.851 37.293 Q 265.836 32.588 268.213 29.047 Q 270.591 25.506 272.918 22.167 Z M 278.382 23.179 Q 276.055 26.416 274.183 29.856 Q 272.311 33.296 270.186 38.001 Q 268.062 42.706 267.05 44.729 Q 270.591 44.224 274.436 41.998 Q 279.596 38.962 282.834 34.409 Q 286.678 29.047 286.678 23.381 Q 286.678 22.572 286.476 20.851 Q 286.476 20.244 286.982 19.941 Q 287.083 19.941 287.285 19.84 Q 287.69 19.637 287.994 19.637 L 288.196 19.637 Q 288.803 19.637 289.005 20.346 Q 289.208 22.673 289.208 23.988 Q 289.208 30.16 285.464 35.522 Q 281.923 40.379 275.751 43.819 Q 270.692 46.753 265.633 47.158 Q 263.407 51.104 261.687 53.633 Q 256.932 60.513 251.974 66.381 Q 267.96 61.93 272.109 56.264 Q 272.311 55.96 272.817 55.859 L 273.019 55.859 Q 273.93 55.859 273.93 56.77 Q 273.93 56.871 273.728 57.275 Q 268.871 64.257 249.546 69.417 Q 240.44 79.838 231.031 87.932 Q 214.336 102.3 205.028 102.3 Q 198.047 102.3 196.63 97.038 Q 196.428 95.824 196.428 95.116 Q 196.428 90.462 200.273 85.099 Q 202.296 82.165 206.293 79.788 Q 210.289 77.41 216.208 75.538 Q 222.127 73.666 226.073 72.654 Q 230.019 71.643 236.899 70.125 Q 239.428 69.518 240.744 69.316 L 252.784 52.621 Q 255.718 48.473 257.033 46.348 Q 250.254 44.628 248.231 39.165 Q 247.421 36.939 247.421 34.612 Q 247.421 27.833 252.885 19.941 Q 256.831 14.376 263.053 10.683 Q 269.276 6.99 274.992 5.422 Q 280.709 3.854 289.107 1.577 Q 297.504 -0.699 302.968 -2.925 Q 303.069 -3.026 303.271 -3.026 Q 303.98 -3.026 304.081 -2.419 Q 304.081 -2.217 304.182 -2.116 L 304.283 -1.306 Q 304.283 -0.699 303.98 -0.598 Q 287.892 9.52 278.382 23.179 Z M 286.982 19.941 L 286.678 20.143 Q 286.779 20.042 286.982 19.941 Z M 205.331 100.074 Q 209.379 100.074 214.286 96.482 Q 219.193 92.89 225.668 86.415 Q 231.941 80.142 238.518 71.946 L 237.202 72.25 Q 230.322 73.767 226.275 74.83 Q 222.228 75.892 216.613 77.713 Q 210.997 79.535 207.355 81.609 Q 203.713 83.683 201.993 86.111 Q 198.553 90.866 198.553 94.61 Q 198.553 95.318 198.755 96.229 Q 199.767 100.074 205.331 100.074 Z" transform="matrix(1.703067, 0, 0, 1.689094, -325.175598, 19.405039)" style="fill: rgb(51, 51, 51); line-height: 165.769px; text-transform: uppercase; white-space: pre;"/>
</svg>